<svg id="Group_30" data-name="Group 30" xmlns="http://www.w3.org/2000/svg" xmlns:xlink="http://www.w3.org/1999/xlink" width="24.5" height="13.201" viewBox="0 0 24.5 13.201">
  <defs>
    <clipPath id="clip-path">
      <rect id="Rectangle_34" data-name="Rectangle 34" width="24.5" height="13.201" fill="#000"/>
    </clipPath>
  </defs>
  <g id="Group_29" data-name="Group 29" transform="translate(0 0)" clip-path="url(#clip-path)">
    <path id="Path_49" data-name="Path 49" d="M24.447,5.761a6.543,6.543,0,0,0-.466-1.727q-.063-.148-.132-.292a6.589,6.589,0,0,0-.347-.629q-.063-.1-.13-.2a6.6,6.6,0,0,0-10.944,0q-.092.136-.178.278-.162.268-.3.551-.07.144-.132.292a6.55,6.55,0,0,0-.466,1.727,6.645,6.645,0,0,0-.053.84q0,.121-.006.241t-.018.238a4.655,4.655,0,0,1-.124.693q-.029.113-.063.223t-.074.218a4.646,4.646,0,0,1-.706,1.268,4.739,4.739,0,0,1-.72.742q-.174.144-.362.271a4.69,4.69,0,0,1-5.25,0q-.188-.127-.362-.271A4.729,4.729,0,0,1,2.47,8.838a4.671,4.671,0,0,1-.282-.624Q2.149,8.106,2.114,8t-.063-.223a4.655,4.655,0,0,1-.124-.693q-.012-.118-.018-.238T1.9,6.6a4.677,4.677,0,0,1,.286-1.614q.079-.216.178-.421t.217-.4a4.726,4.726,0,0,1,.7-.886q.159-.16.334-.3a4.689,4.689,0,0,1,5.973,0q.174.144.334.3a4.745,4.745,0,0,1,.386.438A8.111,8.111,0,0,1,11.26,1.93a6.593,6.593,0,0,0-10.131.983q-.067.1-.13.2a6.589,6.589,0,0,0-.347.629q-.07.144-.132.292A6.55,6.55,0,0,0,.053,5.761,6.642,6.642,0,0,0,.134,7.929q.033.161.074.319a6.532,6.532,0,0,0,.311.919q.125.3.278.577A6.649,6.649,0,0,0,3.457,12.4q.281.153.577.278a6.6,6.6,0,0,0,5.134,0q.3-.125.577-.278a6.651,6.651,0,0,0,2.506-2.393q.08-.131.153-.266.153-.281.278-.577a6.549,6.549,0,0,0,.311-.919q.041-.158.074-.319A6.6,6.6,0,0,0,13.2,6.6q0,.121.006.241Q13.2,6.722,13.2,6.6a4.677,4.677,0,0,1,.286-1.614q.079-.216.178-.421t.217-.4a4.91,4.91,0,0,1,.7-.886q.159-.16.334-.3A4.7,4.7,0,0,1,18.845,2q.229.047.45.116.11.034.218.074.216.079.421.178t.4.217q.1.059.191.122.187.127.362.271t.334.3q.16.159.3.334t.271.362q.063.094.122.191.118.194.217.4t.178.421A4.674,4.674,0,0,1,22.6,6.6q0,.121-.006.241t-.018.238a4.672,4.672,0,0,1-.124.693q-.029.113-.063.223t-.074.218a4.687,4.687,0,0,1-.282.624q-.108.2-.236.387t-.271.362q-.144.174-.3.334t-.334.3q-.174.144-.362.271-.094.063-.191.122-.194.118-.4.217t-.421.178q-.108.04-.218.074-.221.069-.45.116a4.693,4.693,0,0,1-.466.071,4.76,4.76,0,0,1-.48.024,4.671,4.671,0,0,1-2.625-.8q-.188-.127-.362-.271a4.739,4.739,0,0,1-.72-.742,8.113,8.113,0,0,1-.953,1.788A6.641,6.641,0,0,0,14.756,12.4q.281.153.577.278a6.6,6.6,0,0,0,5.134,0q.3-.125.577-.278A6.649,6.649,0,0,0,23.7,9.744q.153-.281.278-.577a6.549,6.549,0,0,0,.311-.919q.041-.158.074-.319a6.645,6.645,0,0,0,.081-2.168" transform="translate(0 0)" fill="#fff"/>
  </g>
</svg>
