<svg xmlns="http://www.w3.org/2000/svg" width="25" height="25" viewBox="0 0 25 25">
  <path id="Icon_awesome-phone-square-alt" data-name="Icon awesome-phone-square-alt" d="M22.321,2.25H2.679A2.679,2.679,0,0,0,0,4.929V24.571A2.679,2.679,0,0,0,2.679,27.25H22.321A2.679,2.679,0,0,0,25,24.571V4.929A2.679,2.679,0,0,0,22.321,2.25ZM21.407,19.4,20.57,23.03a.837.837,0,0,1-.815.649A16.184,16.184,0,0,1,3.571,7.5.876.876,0,0,1,4.22,6.68l3.627-.837a1.017,1.017,0,0,1,.188-.022.908.908,0,0,1,.77.507l1.674,3.906a1,1,0,0,1,.068.33.949.949,0,0,1-.307.648l-2.114,1.73a12.941,12.941,0,0,0,6.182,6.182l1.73-2.114a.949.949,0,0,1,.648-.307,1,1,0,0,1,.33.068l3.906,1.674a.907.907,0,0,1,.507.77.972.972,0,0,1-.022.188Z" transform="translate(0 -2.25)" fill="#cfb683"/>
</svg>
