<svg width="20" height="20" viewBox="0 0 20 20" fill="none" xmlns="http://www.w3.org/2000/svg">
<path d="M10.0398 5.95696e-05C4.5798 5.95696e-05 0.129805 4.45006 0.129805 9.91006C0.129805 11.6601 0.589805 13.3601 1.4498 14.8601L0.0498047 20.0001L5.2998 18.6201C6.7498 19.4101 8.3798 19.8301 10.0398 19.8301C15.4998 19.8301 19.9498 15.3801 19.9498 9.92006C19.9498 7.27006 18.9198 4.78006 17.0498 2.91006C16.133 1.98399 15.041 1.24973 13.8374 0.750111C12.6339 0.250494 11.3429 -0.00448012 10.0398 5.95696e-05ZM10.0498 1.67006C12.2498 1.67006 14.3098 2.53006 15.8698 4.09006C16.6354 4.85541 17.2424 5.76438 17.656 6.76482C18.0695 7.76526 18.2815 8.83751 18.2798 9.92006C18.2798 14.4601 14.5798 18.1501 10.0398 18.1501C8.5598 18.1501 7.10981 17.7601 5.8498 17.0001L5.5498 16.8301L2.4298 17.6501L3.2598 14.6101L3.0598 14.2901C2.23375 12.9787 1.79682 11.4599 1.7998 9.91006C1.8098 5.37006 5.4998 1.67006 10.0498 1.67006ZM6.5298 5.33006C6.3698 5.33006 6.0998 5.39006 5.8698 5.64006C5.6498 5.89006 4.9998 6.50006 4.9998 7.71006C4.9998 8.93006 5.8898 10.1001 5.9998 10.2701C6.1398 10.4401 7.7598 12.9401 10.2498 14.0001C10.8398 14.2701 11.2998 14.4201 11.6598 14.5301C12.2498 14.7201 12.7898 14.6901 13.2198 14.6301C13.6998 14.5601 14.6798 14.0301 14.8898 13.4501C15.0998 12.8701 15.0998 12.3801 15.0398 12.2701C14.9698 12.1701 14.8098 12.1101 14.5598 12.0001C14.3098 11.8601 13.0898 11.2601 12.8698 11.1801C12.6398 11.1001 12.4998 11.0601 12.3098 11.3001C12.1498 11.5501 11.6698 12.1101 11.5298 12.2701C11.3798 12.4401 11.2398 12.4601 10.9998 12.3401C10.7398 12.2101 9.9398 11.9501 8.9998 11.1101C8.2598 10.4501 7.7698 9.64006 7.6198 9.39006C7.4998 9.15006 7.6098 9.00006 7.7298 8.89006C7.8398 8.78006 7.9998 8.60006 8.0998 8.45006C8.2298 8.31006 8.2698 8.20006 8.3498 8.04006C8.4298 7.87006 8.3898 7.73006 8.3298 7.61006C8.2698 7.50006 7.7698 6.26006 7.5598 5.77006C7.35981 5.29006 7.1598 5.35006 6.9998 5.34006C6.8598 5.34006 6.6998 5.33006 6.5298 5.33006Z" fill="#334455"/>
</svg>
