<?xml version="1.0" encoding="UTF-8" standalone="no"?>
<!DOCTYPE svg PUBLIC "-//W3C//DTD SVG 1.1//EN" "http://www.w3.org/Graphics/SVG/1.1/DTD/svg11.dtd">
<svg width="100%" height="100%" viewBox="0 0 211 211" version="1.1" xmlns="http://www.w3.org/2000/svg" xmlns:xlink="http://www.w3.org/1999/xlink" xml:space="preserve" xmlns:serif="http://www.serif.com/" style="fill-rule:evenodd;clip-rule:evenodd;stroke-linejoin:round;stroke-miterlimit:2;transform:rotate(-30deg);">
    <rect id="Digihood_ico_1x1_white" x="0.301" y="0.916" width="210" height="210" style="fill:none;"/>
    <path d="M97.301,105.916L97.301,105.916C97.301,128.008 79.392,145.916 57.301,145.916C35.209,145.916 17.301,128.008 17.301,105.916C17.301,83.825 35.209,65.916 57.301,65.916C65.797,65.916 77.254,69.183 85.144,77.073L96.458,65.759C85.347,54.649 69.265,49.916 57.301,49.916C26.372,49.916 1.301,74.988 1.301,105.916C1.301,136.844 26.372,161.916 57.301,161.916C88.229,161.916 113.301,136.844 113.301,105.916L113.299,105.916C113.334,83.857 131.231,65.916 153.301,65.916C175.392,65.916 193.301,83.825 193.301,105.916C193.301,128.008 175.392,145.916 153.301,145.916C144.805,145.916 133.347,142.649 125.458,134.759L114.144,146.073C125.254,157.183 141.337,161.916 153.301,161.916C184.229,161.916 209.301,136.844 209.301,105.916C209.301,74.988 184.229,49.916 153.301,49.916C122.388,49.916 97.326,75.012 97.301,105.916Z" style="fill:#fff;"/>
</svg>
